<?xml version="1.0" encoding="UTF-8"?>

<svg version="1.1" xmlns="http://www.w3.org/2000/svg" width="1574" height="665">
<path d="M0 0 C519.42 0 1038.84 0 1574 0 C1574 219.45 1574 438.9 1574 665 C1054.58 665 535.16 665 0 665 C0 445.55 0 226.1 0 0 Z M934 75 C934 113.61 934 152.22 934 192 C941.59 192 949.18 192 957 192 C957 153.39 957 114.78 957 75 C949.41 75 941.82 75 934 75 Z M1177 75 C1177 113.61 1177 152.22 1177 192 C1184.59 192 1192.18 192 1200 192 C1200.33 180.12 1200.66 168.24 1201 156 C1203.660625 159.5578125 1203.660625 159.5578125 1206.375 163.1875 C1211.1110445 169.51303444 1215.89927716 175.7941623 1220.74609375 182.03515625 C1223 185 1223 185 1223.8918457 186.90991211 C1225.06443255 189.18027643 1225.94020162 190.46269502 1228 192 C1232.79128531 192.87969997 1237.46221699 192.65741816 1242.3125 192.4375 C1243.62541016 192.40591797 1244.93832031 192.37433594 1246.29101562 192.34179688 C1249.52961009 192.25935992 1252.7636694 192.14432328 1256 192 C1252.1953461 186.73037975 1248.18229271 181.87739449 1243.6875 177.1875 C1238.920292 172.1380722 1234.40241698 166.97772009 1230.08203125 161.53515625 C1227.34692478 158.20479209 1224.37064935 155.12827884 1221.3359375 152.0703125 C1220 150 1220 150 1220.234375 147.3828125 C1220.98263375 145.05404803 1221.67583833 143.05980704 1223 141 C1223.99 140.67 1224.98 140.34 1226 140 C1227.71356765 138.15643117 1227.71356765 138.15643117 1229.4375 135.8125 C1232.82477754 131.45387081 1236.32764799 127.23583831 1239.9375 123.0625 C1249.25232223 114.01729023 1249.25232223 114.01729023 1255 104 C1250.83454875 103.73673412 1246.6712488 103.57817916 1242.5 103.4375 C1241.32695313 103.36208984 1240.15390625 103.28667969 1238.9453125 103.20898438 C1232.33854012 102.98800261 1232.33854012 102.98800261 1226.56445312 105.79956055 C1224.50265383 108.09860331 1222.7403022 110.45107513 1221 113 C1220.03966055 114.2033749 1219.07170455 115.40073992 1218.09375 116.58984375 C1217.22611338 117.70335679 1216.3615141 118.81924329 1215.5 119.9375 C1214.56694138 121.13973843 1213.63334304 122.34155815 1212.69921875 123.54296875 C1212.24724121 124.12481934 1211.79526367 124.70666992 1211.32958984 125.30615234 C1208.72964059 128.6183903 1206.04508003 131.86326986 1203.36328125 135.109375 C1201.8050405 136.88189374 1201.8050405 136.88189374 1202 139 C1201.34 139 1200.68 139 1200 139 C1200 117.88 1200 96.76 1200 75 C1192.41 75 1184.82 75 1177 75 Z M330.2890625 97.28125 C319.06236938 110.61534286 315.48311057 126.61484671 316.73388672 143.67626953 C318.36294018 157.90134373 325.36461539 172.15371663 336.5234375 181.22265625 C351.78734994 192.17704136 365.52497205 194.29484108 384 193 C385.34147313 192.70110413 386.67889927 192.37892184 388 192 C388.24105469 192.54914063 388.48210937 193.09828125 388.73046875 193.6640625 C390.29267839 196.53852823 392.21837722 198.86205266 394.3125 201.375 C395.07175781 202.29023438 395.83101563 203.20546875 396.61328125 204.1484375 C397.79470703 205.55996094 397.79470703 205.55996094 399 207 C399.63679688 208.09828125 400.27359375 209.1965625 400.9296875 210.328125 C402.8641571 212.64948852 403.88555986 212.9814917 406.92553711 213.47314453 C410.57266746 213.59172953 414.16654372 213.52212084 417.8125 213.375 C419.07771484 213.34792969 420.34292969 213.32085937 421.64648438 213.29296875 C424.7660547 213.22233697 427.88215841 213.12373646 431 213 C429.0114295 209.59277127 427.11368357 206.90799939 424.25 204.1875 C420.26603367 200.30568665 416.60777358 196.2300935 413 192 C412.41605469 191.32066406 411.83210938 190.64132813 411.23046875 189.94140625 C409.81744048 188.296734 408.40829078 186.64873067 407 185 C408.31468458 181.97943201 409.54074778 180.36956856 412.1875 178.4375 C421.6677163 170.55374424 427.53157582 157.07703969 429 145 C430.19328006 126.02399453 426.75660791 110.42285933 414.5625 95.5 C405.13064418 85.49199009 391.65773607 79.28605811 377.984375 78.6640625 C358.5281548 78.32746879 343.99985265 82.83051245 330.2890625 97.28125 Z M769 82 C769 89.26 769 96.52 769 104 C764.71 104 760.42 104 756 104 C756 110.27 756 116.54 756 123 C759.96 123.33 763.92 123.66 768 124 C768.01458252 125.3411084 768.02916504 126.6822168 768.04418945 128.06396484 C768.10251099 133.07757163 768.17974033 138.09074509 768.26245117 143.10400391 C768.29554202 145.26669235 768.32362236 147.42946388 768.34643555 149.59228516 C768.38027426 152.71552674 768.43260351 155.83801777 768.48828125 158.9609375 C768.49467117 159.91551849 768.5010611 160.87009949 768.50764465 161.85360718 C768.6976909 170.68855816 770.05106407 178.94344348 776.328125 185.53125 C783.841812 192.13205914 791.85268815 192.15079533 801.375 192.0625 C802.30183594 192.05798828 803.22867188 192.05347656 804.18359375 192.04882812 C806.45575728 192.03711594 808.72788727 192.01918294 811 192 C811 185.73 811 179.46 811 173 C805.87131712 172.50187509 805.87131712 172.50187509 800.73901367 172.04394531 C795.44065395 171.45634652 795.44065395 171.45634652 793.28996277 169.22906494 C791.85405956 166.74781387 791.60847505 165.34986366 791.56762695 162.50683594 C791.54783279 161.62622498 791.52803864 160.74561401 791.50764465 159.83831787 C791.50125473 158.89651672 791.49486481 157.95471558 791.48828125 156.984375 C791.47033005 156.01340881 791.45237885 155.04244263 791.43388367 154.04205322 C791.37975727 150.94474615 791.34587717 147.8475934 791.3125 144.75 C791.27932902 142.64841602 791.24483957 140.5468524 791.20898438 138.4453125 C791.12155002 133.29685249 791.06150074 128.1490965 791 123 C797.6 123 804.2 123 811 123 C811 116.73 811 110.46 811 104 C804.4 104 797.8 104 791 104 C791.01160156 102.49566406 791.02320313 100.99132812 791.03515625 99.44140625 C791.04453249 97.48177207 791.05363287 95.52213655 791.0625 93.5625 C791.07506836 92.07266602 791.07506836 92.07266602 791.08789062 90.55273438 C791.09111328 89.60849609 791.09433594 88.66425781 791.09765625 87.69140625 C791.10289307 86.81685791 791.10812988 85.94230957 791.11352539 85.04125977 C791.22784809 83.00559794 791.22784809 83.00559794 790 82 C788.43827255 81.91314397 786.87270656 81.89297781 785.30859375 81.90234375 C784.03326782 81.90609009 784.03326782 81.90609009 782.73217773 81.90991211 C781.64493408 81.91901611 780.55769043 81.92812012 779.4375 81.9375 C774.2709375 81.9684375 774.2709375 81.9684375 769 82 Z M685.125 114.25 C684.09375 115.4875 683.0625 116.725 682 118 C681.67 113.38 681.34 108.76 681 104 C673.41 104 665.82 104 658 104 C658 133.04 658 162.08 658 192 C665.59 192 673.18 192 681 192 C681.01458252 190.40607422 681.02916504 188.81214844 681.04418945 187.16992188 C681.10232014 181.23577856 681.17955298 175.30200881 681.26245117 169.36816406 C681.29563094 166.80377278 681.32368432 164.23930969 681.34643555 161.67480469 C681.3801085 157.98080958 681.43243307 154.2874684 681.48828125 150.59375 C681.49467117 149.4538562 681.5010611 148.3139624 681.50764465 147.13952637 C681.62553618 140.70410656 682.35504759 135.87635941 685 130 C685.33 129.01 685.66 128.02 686 127 C687.9375 126 687.9375 126 691 125 C691.73863281 124.71640625 692.47726562 124.4328125 693.23828125 124.140625 C699.38661383 121.96050085 703.87560388 121.59482528 710 124 C715.07059011 126.81699451 718.15644638 129.46933914 720 135 C720.11626729 136.85528679 720.17660056 138.7142936 720.20532227 140.57299805 C720.2352401 142.28443245 720.2352401 142.28443245 720.26576233 144.03044128 C720.28247482 145.26176285 720.29918732 146.49308441 720.31640625 147.76171875 C720.33718735 149.02264847 720.35796844 150.28357819 720.37937927 151.5827179 C720.43372122 154.93145458 720.48396166 158.28020205 720.53222656 161.62902832 C720.58250357 165.04766229 720.63815724 168.46620826 720.69335938 171.88476562 C720.80053504 178.5897758 720.90180812 185.29485248 721 192 C728.59 192 736.18 192 744 192 C744.09100804 184.66230215 744.16411821 177.3249218 744.20724869 169.9867754 C744.22796765 166.57796273 744.2559899 163.16956201 744.30175781 159.76098633 C744.35424748 155.8263879 744.3730748 151.89194591 744.390625 147.95703125 C744.41127014 146.75544876 744.43191528 145.55386627 744.45318604 144.31587219 C744.45648671 131.64057442 741.41244262 119.8253373 732.52734375 110.4453125 C725.40874986 104.02908654 716.87965089 102.67012469 707.65625 102.78125 C698.3006027 103.55171507 691.30377926 107.25724982 685.125 114.25 Z M831.6875 116.75 C823.5212684 127.59501533 820.95841343 140.62212246 822 154 C823.69652897 165.95522757 827.18677075 177.78909316 837 185.58984375 C846.22659255 192.1413652 856.31243403 195.05044123 867.5625 193.3125 C875.52290867 191.64481662 883.56839743 188.1154324 888.2578125 181.125 C889.225635 179.44653861 890.12001103 177.72613222 891 176 C891.495 183.92 891.495 183.92 892 192 C899.26 192 906.52 192 914 192 C914 162.96 914 133.92 914 104 C906.74 104 899.48 104 892 104 C891.67 109.28 891.34 114.56 891 120 C890.175 118.80375 889.35 117.6075 888.5 116.375 C883.37235063 109.53813418 877.13714476 104.9692726 868.6875 103.375 C853.89400919 101.87057721 841.53365503 105.19935404 831.6875 116.75 Z M983.74609375 116.03515625 C973.21926129 127.88078651 972.1712891 141.88732676 973 157 C973.92320518 167.12594889 979.26948624 176.4993407 987 183 C987.66 183 988.32 183 989 183 C989 183.66 989 184.32 989 185 C995.25178072 188.65453358 1000.83589662 191.74912481 1008 193 C1008.73347656 193.13277344 1009.46695313 193.26554687 1010.22265625 193.40234375 C1022.961845 195.24590115 1035.96495795 192.27883577 1046.6875 185.234375 C1054.71985698 178.81828497 1060.39307925 168.99324728 1062.69921875 158.95703125 C1064.38219451 142.41141245 1061.80573109 129.96196149 1052.203125 116.4765625 C1049.62684609 113.58053266 1046.99701001 111.82309539 1043.6875 109.8125 C1042.59824219 109.13832031 1041.50898437 108.46414062 1040.38671875 107.76953125 C1022.48712246 98.41714703 998.23314102 102.27095541 983.74609375 116.03515625 Z M444 104 C443.95016864 111.43407236 443.91407785 118.86804519 443.89013672 126.30224609 C443.88014475 128.82570085 443.86654663 131.34914422 443.84912109 133.87255859 C442.61697166 158.54388642 442.61697166 158.54388642 451 181 C451.50660156 181.73992187 452.01320313 182.47984375 452.53515625 183.2421875 C453.26025391 184.11230469 453.26025391 184.11230469 454 185 C454.66 185 455.32 185 456 185 C456.33 185.99 456.66 186.98 457 188 C458.72138304 189.20175547 458.72138304 189.20175547 460.8125 190.125 C461.49957031 190.45757812 462.18664062 190.79015625 462.89453125 191.1328125 C471.71597265 194.76613345 483.69978777 194.35630493 492.5625 191.0625 C497.72607226 188.60162396 501.05961706 185.25352949 504.57421875 180.79296875 C505.04472656 180.20128906 505.51523437 179.60960937 506 179 C506.33 179 506.66 179 507 179 C507 183.29 507 187.58 507 192 C514.59 192 522.18 192 530 192 C530 162.96 530 133.92 530 104 C522.74 104 515.48 104 508 104 C506.77719954 104.99844444 506.77719954 104.99844444 506.90666199 106.98239136 C506.92809013 108.28830734 506.92809013 108.28830734 506.94995117 109.62060547 C506.96293747 110.60608368 506.97592377 111.59156189 506.98930359 112.60690308 C507.00701309 113.68279694 507.0247226 114.7586908 507.04296875 115.8671875 C507.06538236 118.13801185 507.08683494 120.40884585 507.10742188 122.6796875 C507.1443334 126.26523911 507.18708842 129.85029853 507.24682617 133.43554688 C507.30176281 136.89199684 507.33054823 140.34790694 507.35546875 143.8046875 C507.37925095 144.86033905 507.40303314 145.9159906 507.42753601 147.00363159 C507.45371814 154.54714707 506.55857829 162.67096346 501.58757019 168.7182312 C496.1834053 173.48171703 490.75119056 174.46262675 483.7890625 174.3125 C478.12298699 173.6776456 474.41915346 171.56853804 470.625 167.375 C466.79325099 159.41675206 466.68226839 150.77629386 466.5859375 142.0859375 C466.56657135 140.99028473 466.5472052 139.89463196 466.5272522 138.76577759 C466.46797306 135.30226165 466.42127924 131.83871153 466.375 128.375 C466.33677261 126.01170509 466.29771819 123.64842341 466.2578125 121.28515625 C466.16077425 115.52351042 466.0807954 109.76198753 466 104 C458.74 104 451.48 104 444 104 Z M556.625 115.375 C546.94681343 127.07840066 544.89885464 141.04262694 545.79296875 155.859375 C546.81491666 166.42593072 551.55651675 176.73957194 559.20703125 184.1328125 C569.2272203 192.29235315 579.41338408 193.89882107 592 193 C601.40479412 191.37063439 607.39506114 187.34232435 612.8984375 179.609375 C613.26195312 179.07828125 613.62546875 178.5471875 614 178 C614.06058594 178.92683594 614.12117187 179.85367188 614.18359375 180.80859375 C614.26738281 182.00613281 614.35117187 183.20367187 614.4375 184.4375 C614.51871094 185.63246094 614.59992188 186.82742187 614.68359375 188.05859375 C614.67656114 190.88570244 614.67656114 190.88570244 616 192 C623.26 192 630.52 192 638 192 C638 162.96 638 133.92 638 104 C630.74 104 623.48 104 616 104 C614.05909174 105.94090826 614.60080565 109.47293902 614.4375 112.0625 C614.31181641 113.99802734 614.31181641 113.99802734 614.18359375 115.97265625 C614.12300781 116.97167969 614.06242188 117.97070312 614 119 C613.64808594 118.48050781 613.29617188 117.96101563 612.93359375 117.42578125 C606.3898518 108.18253217 600.18361736 104.96365298 589 103 C576.21256755 101.8782954 565.35065844 106.03644873 556.625 115.375 Z M1083 119 C1074.43862952 132.44347431 1072.79026839 147.98529519 1076.0625 163.4375 C1079.57527075 175.19552431 1086.84927176 182.95287623 1097.11328125 189.30859375 C1109.14247059 195.49309222 1123.01264303 194.50403474 1135.7109375 191.3203125 C1145.43551876 188.09923669 1152.9257039 180.77264113 1157.625 171.8125 C1159.64151283 167.55217955 1160.4754082 163.68052458 1161 159 C1157.27189132 158.76707719 1153.54565008 158.62540876 1149.8125 158.5 C1148.75740234 158.43296875 1147.70230469 158.3659375 1146.61523438 158.296875 C1143.55349704 158.21960718 1140.97160787 158.24603112 1138 159 C1136.09222989 160.87385538 1135.08997885 162.55631861 1133.98364258 164.98071289 C1132.36978661 168.29374409 1129.96487335 169.87302564 1127 172 C1121.30732413 173.89755862 1115.12408689 173.84963476 1109.5625 171.625 C1108.716875 171.08875 1107.87125 170.5525 1107 170 C1106.2575 169.71125 1105.515 169.4225 1104.75 169.125 C1102.17321727 167.46849681 1101.91586932 165.93078184 1101 163 C1100.61134766 161.89398438 1100.61134766 161.89398438 1100.21484375 160.765625 C1096.95567457 151.00327639 1097.25700424 142.65692905 1101 133 C1103.59833722 128.45751684 1107.02239455 125.59994461 1112 124 C1119.11889569 123.16357622 1125.18002167 123.18896713 1131.31640625 127.125 C1133 129 1133 129 1137 137 C1144.92 137 1152.84 137 1161 137 C1158.1130392 124.00867639 1154.16267511 116.38937648 1143 109 C1142.35160156 108.56816406 1141.70320313 108.13632813 1141.03515625 107.69140625 C1122.271231 96.86148745 1096.63242459 103.39322426 1083 119 Z M94 133 C91.78160258 134.86602511 91.78160258 134.86602511 91.375 137.6875 C92.0905842 141.48009628 92.61060554 141.82494232 95.48065948 144.15614414 C100.21665042 148.14161638 104.56751281 152.43123379 108.93444824 156.81419373 C109.79882964 157.6777207 110.66321103 158.54124766 111.5537858 159.43094212 C113.93185607 161.8076582 116.30768124 164.18657752 118.68255281 166.56648719 C121.25184845 169.14012523 123.82405821 171.71084799 126.39590454 174.28193665 C130.84456704 178.73007631 135.29140358 183.18003456 139.73698425 187.6312542 C146.16444958 194.06686706 152.5946939 200.4996974 159.02560693 206.93186487 C169.4607618 217.36920514 179.89368429 227.80877387 190.32519531 238.24975586 C200.45487889 248.38862677 210.58561842 258.52644067 220.71777344 268.6628418 C221.34294072 269.2882718 221.968108 269.91370181 222.61221975 270.55808424 C225.74869241 273.69586199 228.88518576 276.83361904 232.02168941 279.97136581 C258.01766991 305.97770301 284.01002432 331.98766183 310 358 C309.06653562 359.27374896 308.12895844 360.5444844 307.18969727 361.81396484 C306.4072036 362.87591568 306.4072036 362.87591568 305.60890198 363.95932007 C303.32657001 366.85415711 300.7217205 369.22518156 297.9375 371.625 C294.87563385 374.29090138 291.95046777 376.95909826 289.3828125 380.11328125 C287.34711459 382.57947921 285.39090756 384.53831682 282.9375 386.5625 C280.68631471 388.47831318 278.85436031 390.18204961 277 392.5 C274.58754578 395.51556778 271.8057385 397.81275245 268.875 400.3125 C266.86602082 402.028658 266.86602082 402.028658 265 404.5 C263.14563969 406.81795039 261.31368529 408.52168682 259.0625 410.4375 C256.588648 412.54688025 254.59687631 414.48374843 252.5 417 C249.86966984 420.15639619 247.02478739 422.62816595 243.90625 425.28125 C241.79047716 427.10720529 241.79047716 427.10720529 239.5 430 C236.85176709 433.1778795 233.97962229 435.6756287 230.83984375 438.34765625 C228.86047467 440.03470017 228.86047467 440.03470017 227 442.5 C225.14563969 444.81795039 223.31368529 446.52168682 221.0625 448.4375 C218.588648 450.54688025 216.59687631 452.48374843 214.5 455 C211.84350707 458.18779152 208.97698228 460.67649244 205.76953125 463.2890625 C203.92132713 465.0760678 203.00059256 466.6498903 202 469 C201.34 469 200.68 469 200 469 C200 469.66 200 470.32 200 471 C199.42765625 471.2475 198.8553125 471.495 198.265625 471.75 C195.64989389 473.19316199 193.85226544 474.88216222 191.75 477 C191.04359375 477.70125 190.3371875 478.4025 189.609375 479.125 C187.78289601 480.84110768 187.78289601 480.84110768 188 483 C187.42025264 483.25526301 186.84050528 483.51052603 186.24318981 483.77352428 C183.76574412 485.12808062 182.10933474 486.63341822 180.10896301 488.62361145 C179.34763565 489.37640884 178.58630829 490.12920624 177.8019104 490.90481567 C176.56348892 492.14459671 176.56348892 492.14459671 175.30004883 493.40942383 C174.42324966 494.27950577 173.5464505 495.14958771 172.64308167 496.04603577 C170.24267593 498.43070217 167.84691895 500.81984376 165.4537375 503.21174836 C163.9579587 504.70610468 162.46076454 506.19902749 160.96304893 507.69144249 C155.73730466 512.89869336 150.51674375 518.11107652 145.30102539 523.32836914 C140.43974673 528.19085019 135.56741607 533.04205764 130.68978101 537.88812619 C126.5008336 542.05092738 122.3196283 546.22139819 118.14437312 550.39793223 C115.65122411 552.8915912 113.15506736 555.38204528 110.65110207 557.86484718 C107.86010326 560.63289666 105.08527048 563.41680749 102.31176758 566.20239258 C101.48008057 567.02284058 100.64839355 567.84328857 99.79150391 568.68859863 C99.03863602 569.4498555 98.28576813 570.21111237 97.51008606 570.99543762 C96.85251218 571.65192197 96.1949383 572.30840631 95.51743793 572.98478413 C93.71181012 575.38272724 93.19075544 577.0125105 93 580 C93.99 581.485 93.99 581.485 95 583 C97.91440699 583.66721536 97.91440699 583.66721536 101 583 C103.00917635 580.86678805 103.00917635 580.86678805 105 578 C106.3098379 576.80701486 107.64552685 575.64205577 109 574.5 C111.26836139 572.56522117 113.13049472 570.8368816 115 568.5 C116.85436031 566.18204961 118.68631471 564.47831318 120.9375 562.5625 C123.411352 560.45311975 125.40312369 558.51625157 127.5 556 C130.14489966 552.8261204 133.00020074 550.2846816 136.12890625 547.60546875 C138.2011768 545.82738274 140.1844517 544.04249184 142 542 C142 541.34 142 540.68 142 540 C142.59428618 539.72988914 143.18857235 539.45977829 143.8008672 539.18148226 C145.98786169 538.0065213 147.4280531 536.83319989 149.1861248 535.09628391 C149.79504944 534.49935846 150.40397407 533.90243301 151.03135097 533.2874189 C152.02092333 532.30240935 152.02092333 532.30240935 153.03048706 531.29750061 C154.09272922 530.25158026 154.09272922 530.25158026 155.17643082 529.1845302 C157.55458293 526.84018319 159.92549659 524.48865228 162.29638672 522.13696289 C163.99804333 520.45602152 165.7000425 518.77542688 167.40235901 517.09515381 C173.00297213 511.56255038 178.5923666 506.01867541 184.1796875 500.47265625 C185.14221095 499.51744052 186.1047387 498.56222912 187.06727076 497.60702205 C196.06967421 488.67238163 205.06717099 479.732815 214.05465508 470.78316593 C216.13662767 468.71011051 218.21866525 466.63712038 220.30078125 464.56420898 C220.81820448 464.04906478 221.33562772 463.53392058 221.86873044 463.00316595 C230.20930808 454.70076999 238.57539497 446.42458233 246.95234929 438.15890808 C255.58108468 429.64384277 264.18437274 421.10368636 272.76467526 412.53981584 C277.57101198 407.74396126 282.38747901 402.95940719 287.23275375 398.20286751 C314.93843432 371.61643048 314.93843432 371.61643048 333.83830643 338.68153191 C335.44361502 334.97600551 337.4860837 331.61595915 339.62689018 328.19876194 C341.80090065 324.71751709 343.72379362 321.10246219 345.6875 317.5 C355.82305625 299.14480209 366.58228305 282.3423 381 267 C381.825 266.113125 382.65 265.22625 383.5 264.3125 C391.59404823 256.82550539 399.67196807 251.05345845 411.0625 250.5 C425.22905143 251.17246288 436.38857453 261.3717256 445.49902344 271.29199219 C467.02837292 295.79090711 481.52131501 326.83392357 496.26254272 355.65678406 C500.43406579 363.81074833 504.68288036 371.92225775 509 380 C509.67893311 381.27133789 509.67893311 381.27133789 510.37158203 382.56835938 C538.60964092 439.81004728 538.60964092 439.81004728 587.55859375 476.84375 C598.57305226 479.52246631 609.19121322 477.45070557 619 472 C629.26233453 465.26888762 637.7727085 457.07188396 645 447.1875 C645.48210938 446.53974609 645.96421875 445.89199219 646.4609375 445.22460938 C647.98932635 443.16047576 649.49799379 441.08340524 651 439 C651.55252441 438.23582764 652.10504883 437.47165527 652.67431641 436.68432617 C657.23083705 430.28818865 661.35395296 423.68076722 665.375 416.9375 C666.03201904 415.83841309 666.68903809 414.73932617 667.3659668 413.60693359 C672.1496423 405.55065121 676.66750849 397.40225852 680.9375 389.06445312 C682.4585367 386.10905645 684.01347281 383.17188238 685.56640625 380.2331543 C688.67945104 374.3419122 691.77396888 368.44124796 694.84375 362.52734375 C746.35954681 263.30667157 746.35954681 263.30667157 775 252 C785.18984947 249.54254014 793.73938171 251.31102378 802.7578125 256.625 C822.53494967 270.14782883 835.31465812 292.65939544 847 313 C847.78165527 314.34916504 847.78165527 314.34916504 848.57910156 315.72558594 C857.25500654 330.7445997 865.21863857 346.0901383 873.09838867 361.53540039 C878.74770473 372.60353922 884.51427403 383.58965306 890.57421875 394.43994141 C892.10372392 397.18624128 893.61421003 399.94258386 895.125 402.69921875 C904.67938714 420.01023308 914.88523202 437.11834677 928 452 C928.68964844 452.83273437 929.37929688 453.66546875 930.08984375 454.5234375 C940.01925739 466.19453853 952.37644403 476.02927838 968 478 C983.90583987 478.72867067 995.37956985 470.78496996 1006.66015625 460.59765625 C1023.51228851 444.47295416 1035.67235096 423.78172673 1046.68896484 403.41601562 C1048.04803843 400.91147331 1049.42275358 398.41603417 1050.80078125 395.921875 C1058.23155113 382.43985599 1065.33027469 368.79551141 1072.38964844 355.11621094 C1105.95231998 290.16867613 1105.95231998 290.16867613 1129 266 C1129.87011719 265.03513672 1129.87011719 265.03513672 1130.7578125 264.05078125 C1138.02658311 256.25798299 1146.99907416 251.16592709 1157.75 250.625 C1167.28975048 250.85696962 1174.88108509 254.94816013 1182 261 C1182.57105469 261.43957031 1183.14210938 261.87914062 1183.73046875 262.33203125 C1203.65270223 278.15128758 1217.09464691 305.90574719 1229 328 C1229.84860596 329.57201172 1229.84860596 329.57201172 1230.71435547 331.17578125 C1233.17773556 335.7412196 1235.63942388 340.3075262 1238.09130859 344.87915039 C1238.65543457 345.93094482 1239.21956055 346.98273926 1239.80078125 348.06640625 C1240.54581909 349.4577478 1240.54581909 349.4577478 1241.3059082 350.87719727 C1241.8649585 351.90772217 1242.42400879 352.93824707 1243 354 C1243.31269673 354.64198668 1243.62539346 355.28397336 1243.94756585 355.94541419 C1247.27903646 362.48009534 1251.66745772 367.21875115 1256.86393738 372.33822632 C1257.75701279 373.23401386 1258.65008819 374.1298014 1259.57022649 375.05273402 C1262.03171758 377.52118432 1264.50540921 379.97707249 1266.98138177 382.43098521 C1269.65599994 385.08618528 1272.31895147 387.75304234 1274.98335266 390.41848755 C1279.59586293 395.02968763 1284.21556099 399.6335824 1288.84023094 404.23258591 C1295.52930788 410.88464858 1302.2067619 417.54828086 1308.88138501 424.21484263 C1319.71563745 435.03547761 1330.55842098 445.84752083 1341.40698242 456.65380859 C1351.93609509 467.14194264 1362.46241651 477.63286154 1372.98413086 488.12841797 C1373.63285147 488.77552228 1374.28157208 489.4226266 1374.9499509 490.08934014 C1382.02947139 497.15138639 1389.10818057 504.21424537 1396.18626118 511.27773476 C1396.80793082 511.89811656 1397.42960045 512.51849837 1398.07010857 513.15767962 C1403.18336817 518.26035582 1403.18336817 518.26035582 1405.52437309 520.59667356 C1412.80169495 527.8593444 1420.08149976 535.11950655 1427.36574063 542.37523814 C1431.93043869 546.92211271 1436.49360943 551.47051573 1441.05557772 556.02012913 C1444.19624152 559.15206537 1447.33896859 562.28191066 1450.48331995 565.41014447 C1452.82988987 567.74597922 1455.17321072 570.08506435 1457.51701355 572.42367554 C1458.356004 573.25702466 1459.19499444 574.09037379 1460.05940884 574.94897592 C1460.81968768 575.70877901 1461.57996652 576.4685821 1462.36328411 577.25140953 C1463.02204656 577.90762397 1463.68080902 578.56383841 1464.35953397 579.23993814 C1466 581 1466 581 1468 584 C1471.58357241 584.25015873 1471.58357241 584.25015873 1475 584 C1476.04200632 581.18045349 1476.46088803 579.91246153 1476 577 C1474.33283963 574.62018651 1474.33283963 574.62018651 1472.05252171 572.30613136 C1471.22663394 571.42554157 1470.40074618 570.54495177 1469.54983151 569.63767743 C1468.70838711 568.76724388 1467.86694271 567.89681033 1467 567 C1466.27665746 566.25106625 1465.55331491 565.50213251 1464.8080529 564.7305038 C1462.5873947 562.46246953 1460.34583945 560.21713672 1458.09715271 557.97689819 C1457.2482511 557.12714216 1456.39934949 556.27738612 1455.52472359 555.40187991 C1453.19813275 553.07393937 1450.86934303 550.74822639 1448.53955352 548.4234879 C1446.01638745 545.90467772 1443.4961506 543.38293944 1440.97554016 540.86157227 C1436.61801564 536.50352574 1432.25867746 532.1473004 1427.89806938 527.79233932 C1421.5935191 521.49594811 1415.29176233 515.196767 1408.99066377 508.89692171 C1398.76518331 498.67362487 1388.53747601 488.45255889 1378.30834961 478.23291016 C1368.37715866 468.31091121 1358.44702822 458.38785284 1348.51831055 448.46337891 C1347.90535397 447.85068505 1347.29239739 447.2379912 1346.66086637 446.60673086 C1343.58556616 443.53273578 1340.51028667 440.45871997 1337.43501747 437.38469386 C1311.9598886 411.91991612 1286.48113784 386.45876483 1261 361 C1262.28979386 358.16616023 1263.64021246 356.11037576 1265.84022999 353.91367435 C1266.71416848 353.03376271 1266.71416848 353.03376271 1267.6057623 352.13607508 C1268.24631439 351.50134868 1268.88686647 350.86662228 1269.54682922 350.21266174 C1270.22696349 349.53081863 1270.90709775 348.84897551 1271.60784215 348.14647049 C1273.89309303 345.8579197 1276.18542959 343.57660061 1278.4777832 341.29516602 C1280.11569439 339.65781886 1281.75316553 338.0200314 1283.39022827 336.38183594 C1287.84244717 331.92904197 1292.3008174 327.48245295 1296.76028848 323.03692365 C1301.4233668 318.38633712 1306.08079242 313.73009669 1310.73881531 309.07444763 C1318.56460259 301.2538428 1326.39420598 293.43707287 1334.22631836 285.62280273 C1342.28072999 277.58672057 1350.333061 269.54856311 1358.38256836 261.50756836 C1358.87804416 261.01261801 1359.37351996 260.51766766 1359.88401017 260.00771881 C1362.37038788 257.52395183 1364.85672403 255.04014326 1367.34303916 252.55631363 C1384.49159799 235.42498117 1401.64455549 218.29806006 1418.80207825 201.17570496 C1419.52641074 200.45285165 1420.25074323 199.72999835 1420.99702519 198.9852404 C1422.32898994 197.6560203 1423.66098168 196.32682724 1424.99300748 194.99766833 C1428.3306056 191.66704217 1431.66652081 188.33474993 1435 185 C1444.33333333 175.66666667 1453.66666667 166.33333333 1463 157 C1463.68578125 156.31292969 1464.3715625 155.62585938 1465.078125 154.91796875 C1466.62596077 153.37327899 1468.1860666 151.84088946 1469.75 150.3125 C1473.12557811 146.86039153 1473.12557811 146.86039153 1476 143 C1475.81615628 139.66098546 1475.81615628 139.66098546 1474 137 C1470.89161802 136.61808276 1469.42760656 136.71593628 1466.7890625 138.46875 C1465.71785156 139.47421875 1465.71785156 139.47421875 1464.625 140.5 C1463.45904297 141.59248047 1463.45904297 141.59248047 1462.26953125 142.70703125 C1459.57704082 145.42732709 1457.08536305 148.27217372 1454.6171875 151.1953125 C1452.32262741 153.75590854 1449.64273526 155.80709201 1447 158 C1446.00032005 159.12798111 1445.02189336 160.27506042 1444.0625 161.4375 C1442.03072147 163.89367091 1439.95965912 165.97280842 1437.5 168 C1434.45798171 170.50833087 1432.03682586 173.24198462 1429.53515625 176.27734375 C1427.44191348 178.62624976 1425.07025586 180.54026918 1422.6484375 182.5390625 C1420.75831341 184.13944431 1420.75831341 184.13944431 1418.5625 186.9375 C1416.45497474 189.4562497 1414.48010261 191.39075385 1412 193.5 C1409.54328712 195.59003932 1407.58174759 197.50190289 1405.5 200 C1402.85176709 203.1778795 1399.97962229 205.6756287 1396.83984375 208.34765625 C1394.86047467 210.03470017 1394.86047467 210.03470017 1393 212.5 C1391.14563969 214.81795039 1389.31368529 216.52168682 1387.0625 218.4375 C1384.588648 220.54688025 1382.59687631 222.48374843 1380.5 225 C1377.85176709 228.1778795 1374.97962229 230.6756287 1371.83984375 233.34765625 C1369.86047467 235.03470017 1369.86047467 235.03470017 1368 237.5 C1366.14563969 239.81795039 1364.31368529 241.52168682 1362.0625 243.4375 C1359.588648 245.54688025 1357.59687631 247.48374843 1355.5 250 C1352.86966984 253.15639619 1350.02478739 255.62816595 1346.90625 258.28125 C1344.79047716 260.10720529 1344.79047716 260.10720529 1342.5 263 C1339.85176709 266.1778795 1336.97962229 268.6756287 1333.83984375 271.34765625 C1331.86047467 273.03470017 1331.86047467 273.03470017 1330 275.5 C1327.58754578 278.51556778 1324.8057385 280.81275245 1321.875 283.3125 C1319.86602082 285.028658 1319.86602082 285.028658 1318 287.5 C1316.14563969 289.81795039 1314.31368529 291.52168682 1312.0625 293.4375 C1309.588648 295.54688025 1307.59687631 297.48374843 1305.5 300 C1302.85510034 303.1738796 1299.99979926 305.7153184 1296.87109375 308.39453125 C1294.7988232 310.17261726 1292.8155483 311.95750816 1291 314 C1291 314.66 1291 315.32 1291 316 C1290.41184509 316.26283783 1289.82369019 316.52567566 1289.2177124 316.79647827 C1286.89287538 318.05813504 1285.37510246 319.3835506 1283.51660156 321.25634766 C1282.52602753 322.24714828 1282.52602753 322.24714828 1281.51544189 323.25796509 C1280.81425232 323.96947723 1280.11306274 324.68098938 1279.390625 325.4140625 C1278.30041046 326.50852188 1278.30041046 326.50852188 1277.18817139 327.62509155 C1274.87070802 329.9537388 1272.5603005 332.28924826 1270.25 334.625 C1268.67884556 336.20618653 1267.10723629 337.78692125 1265.53515625 339.3671875 C1261.68481347 343.2395669 1257.84023883 347.11760171 1254 351 C1250.22466537 344.83522321 1246.67557995 338.6174825 1243.375 332.1875 C1231.14374531 308.72713124 1218.01428345 285.35537211 1201 265 C1200.13761719 263.89205078 1200.13761719 263.89205078 1199.2578125 262.76171875 C1190.23335937 251.55972345 1177.33736141 242.36279716 1163 240 C1147.16690851 238.29961517 1135.68726652 246.10032659 1123.88671875 255.47265625 C1119.30200871 259.48660401 1115.75713182 264.22316197 1112 269 C1110.78763672 270.50626953 1110.78763672 270.50626953 1109.55078125 272.04296875 C1102.98632522 280.27993063 1097.3814461 288.95512815 1092 298 C1091.4627832 298.89783203 1090.92556641 299.79566406 1090.37207031 300.72070312 C1081.73497028 315.22094405 1073.79761169 329.98869198 1066.13549805 345.01904297 C1060.76213124 355.55864711 1055.18713222 365.96788331 1049.46679688 376.32373047 C1047.89192698 379.19718649 1046.34203995 382.0831236 1044.796875 384.97265625 C1006.14667211 457.19430486 1006.14667211 457.19430486 978.046875 466.5234375 C969.1855599 468.58656811 961.83218248 466.33312953 954 462 C932.98615246 447.73852452 919.52715036 424.48939617 907.52392578 402.74023438 C905.94495812 399.90102691 904.33448373 397.08181145 902.71484375 394.265625 C896.59151944 383.59858285 890.8066308 372.84091467 885.37890625 361.8046875 C881.42721925 353.77858027 877.20793454 345.89377875 873 338 C872.44731445 336.95908203 871.89462891 335.91816406 871.32519531 334.84570312 C864.86366676 322.68573523 858.42693926 310.60175644 851 299 C850.20193866 297.70074397 849.4065368 296.39985199 848.61328125 295.09765625 C843.49262883 286.71948567 838.1480147 278.67503783 832 271 C831.31550781 270.14510986 831.31550781 270.14510986 830.6171875 269.27294922 C819.9871647 256.11687488 807.40241854 243.1640761 790 240 C776.77987875 238.87095238 765.20215443 243.12747408 754.953125 251.484375 C751.85664883 254.21104204 748.91305407 257.07967627 746 260 C745.24074219 260.74765625 744.48148438 261.4953125 743.69921875 262.265625 C718.48665024 288.63050468 702.27567824 325.45881764 685.84887695 357.63867188 C636.23921577 454.78402326 636.23921577 454.78402326 606.375 465.9375 C596.48102772 468.74928608 589.00308742 466.31175912 580.203125 461.45703125 C570.71003622 455.72708678 563.84026413 448.30190583 557.375 439.375 C556.77945312 438.55652588 556.18390625 437.73805176 555.5703125 436.89477539 C543.54329356 420.16654382 533.3675253 402.60703261 523.78857422 384.38720703 C521.99286228 380.98648256 520.17449438 377.59893875 518.34765625 374.21484375 C513.05797044 364.41201638 507.8019097 354.59688329 502.70703125 344.69140625 C502.34925598 343.99592178 501.99148071 343.30043732 501.62286377 342.58387756 C499.89344934 339.21837355 498.1697126 335.85009551 496.45361328 332.4777832 C493.26491869 326.23267844 489.97161344 320.10579035 486.30249023 314.12792969 C484.55701304 311.27627473 482.93917057 308.35819614 481.3125 305.4375 C467.38478025 280.8601785 448.45638429 249.12246348 419.9375 240.625 C407.00454496 238.57214999 395.92413371 241.20242511 385.0390625 248.58984375 C372.12266306 258.8333122 362.05241687 271.32154316 353 285 C352.55994629 285.66467285 352.11989258 286.3293457 351.66650391 287.01416016 C338.44922562 307.20285508 327.29586165 328.7028847 316 350 C310.44272237 345.37326083 305.31276834 340.44232604 300.2194519 335.31278992 C299.35945276 334.45082294 298.49945362 333.58885596 297.6133939 332.70076877 C295.73577248 330.8181132 293.85910424 328.93456262 291.98401642 327.04938889 C288.93240819 323.98137199 285.87727769 320.91687749 282.82174683 317.85276794 C278.38697202 313.40490229 273.95382467 308.95542008 269.52157211 304.50504112 C262.51722806 297.47244047 255.50706775 290.44565312 248.49588013 283.4198761 C246.09531087 281.01418331 243.69476689 278.60846528 241.29422188 276.2027483 C240.69443074 275.60167113 240.0946396 275.00059395 239.47667297 274.38130232 C232.65862012 267.54853392 225.84145458 260.71488068 219.02490234 253.88061523 C218.09076378 252.94405456 218.09076378 252.94405456 217.13775374 251.98857347 C207.03012492 241.85436862 196.9281082 231.71458459 186.82767974 221.57320406 C176.45333084 211.15715105 166.07136214 200.74873532 155.68267071 190.34698707 C149.27630015 183.93201409 142.87622846 177.51088346 136.48406531 171.08175293 C132.10788087 166.68133032 127.72447456 162.28818991 123.33525835 157.90076604 C120.80191009 155.36799665 118.27197798 152.83203897 115.75065613 150.28729248 C113.02004556 147.53146945 110.27417427 144.79118884 107.52658081 142.05229187 C106.72882071 141.24219829 105.93106062 140.43210471 105.10912597 139.59746283 C104.37197455 138.86765891 103.63482313 138.13785498 102.87533379 137.38593578 C102.24309674 136.75163778 101.6108597 136.11733979 100.95946395 135.46382064 C98.60802068 133.70717123 96.91840871 133.20010425 94 133 Z M638 524 C637.97687208 531.80575195 637.95908262 539.61149595 637.94818783 547.41727352 C637.94295998 551.0414596 637.93586413 554.6656223 637.92456055 558.28979492 C637.91372816 561.78459975 637.90772242 565.27938204 637.90512276 568.77420235 C637.90236449 570.76239389 637.89455312 572.75057631 637.88670349 574.73875427 C637.88662796 575.93992386 637.88655243 577.14109344 637.88647461 578.37866211 C637.884254 579.44233505 637.88203339 580.506008 637.87974548 581.60191345 C637.72883237 583.95243414 637.72883237 583.95243414 639 585 C640.65 585 642.3 585 644 585 C644 579.39 644 573.78 644 568 C647.40263389 570.72210711 649.80799281 572.73121785 652.5 575.9375 C653.098125 576.62714844 653.69625 577.31679688 654.3125 578.02734375 C655.72114412 579.67402264 657.11272918 581.33527502 658.5 583 C661.7807952 585.62463616 663.9090117 585.40107728 668 585 C663.83811897 580.09111469 659.57562997 575.28906184 655.24609375 570.52734375 C652.76439972 567.73489847 650.37875602 564.88042688 648 562 C649.85227371 559.97740227 651.70636716 557.95655273 653.5625 555.9375 C654.1080957 555.34348389 654.65369141 554.74946777 655.21582031 554.13745117 C658.1566491 550.94951955 661.13430106 547.83183712 664.25 544.8125 C667.23303921 542.41725273 667.23303921 542.41725273 667 540 C663.79767901 539.32825825 663.79767901 539.32825825 660 540 C657.97201324 541.75164571 656.42891005 543.65325655 654.77734375 545.76171875 C652.50839583 548.61909712 649.93255549 551.05274976 647.28515625 553.5546875 C645.7785036 554.92675739 645.7785036 554.92675739 646 557 C645.34 557 644.68 557 644 557 C644 546.11 644 535.22 644 524 C642.02 524 640.04 524 638 524 Z M788 524 C788 544.13 788 564.26 788 585 C789.65 585 791.3 585 793 585 C794.74299388 583.25700612 794.12758682 580.85593748 794.12939453 578.48632812 C794.13412277 576.71944641 794.13412277 576.71944641 794.13894653 574.91687012 C794.1369223 573.63461548 794.13489807 572.35236084 794.1328125 571.03125 C794.13376923 569.72546997 794.13472595 568.41968994 794.13571167 567.07434082 C794.13718833 564.30687278 794.13503511 561.53943696 794.13037109 558.77197266 C794.12467381 555.21737351 794.12795298 551.66284986 794.13394356 548.10825348 C794.13841747 544.72841286 794.13528886 541.34859277 794.1328125 537.96875 C794.13483673 536.68649536 794.13686096 535.40424072 794.13894653 534.08312988 C794.13579437 532.90520874 794.13264221 531.7272876 794.12939453 530.51367188 C794.12859894 529.47078003 794.12780334 528.42788818 794.12698364 527.35339355 C794.26505407 525.04239365 794.26505407 525.04239365 793 524 C791.35 524 789.7 524 788 524 Z M978 524 C978 544.13 978 564.26 978 585 C979.65 585 981.3 585 983 585 C983 564.87 983 544.74 983 524 C981.35 524 979.7 524 978 524 Z M1076 524 C1074.98888907 527.04913228 1074.98888907 527.04913228 1076 530 C1077.98 530 1079.96 530 1082 530 C1082.38218767 528.34385343 1082.71395102 526.67542976 1083 525 C1081.87465895 523.64381501 1081.87465895 523.64381501 1078.9375 523.9375 C1077.968125 523.958125 1076.99875 523.97875 1076 524 Z M337 527 C336.92549686 532.83493296 336.87123136 538.66958518 336.83520508 544.50488281 C336.82017656 546.4873538 336.79974802 548.46979186 336.77368164 550.45214844 C336.73703617 553.31193193 336.72021396 556.17127344 336.70703125 559.03125 C336.69154739 559.90865845 336.67606354 560.78606689 336.66011047 561.69006348 C336.65824056 568.62420065 337.99774398 573.89305101 341.8125 579.8125 C345.89530254 583.89530254 350.05104293 585.37422391 355.81152344 585.51928711 C356.4924707 585.51292236 357.17341797 585.50655762 357.875 585.5 C358.58172852 585.49427979 359.28845703 585.48855957 360.01660156 585.48266602 C365.83469405 585.28331513 369.95397774 584.25953267 374 580 C379.13540834 573.34972194 379.14515984 566.55967459 379.09765625 558.54296875 C379.0962413 557.64000565 379.09482635 556.73704254 379.09336853 555.80671692 C379.08778823 552.93361037 379.07523934 550.06058284 379.0625 547.1875 C379.05748245 545.23502717 379.05291999 543.28255311 379.04882812 541.33007812 C379.03782525 536.55335515 379.02057418 531.77669096 379 527 C377.02 527 375.04 527 373 527 C372.98541748 528.1645874 372.97083496 529.3291748 372.95581055 530.52905273 C372.89746688 534.88482063 372.82023852 539.24009091 372.73754883 543.59545898 C372.70446816 545.47395704 372.67638473 547.35255046 372.65356445 549.23120117 C372.61970614 551.94490889 372.56737785 554.65775576 372.51171875 557.37109375 C372.50213387 558.61384315 372.50213387 558.61384315 372.49235535 559.88169861 C372.32203304 566.76673202 371.45636076 573.54363924 366.4375 578.5625 C360.65697981 580.97980844 355.48094453 580.81194548 349.5625 578.875 C346.29346727 576.48302483 345.47577572 574.78779808 344 571 C343.54821545 567.59678234 343.51181032 564.21896679 343.48828125 560.7890625 C343.47033005 559.82092621 343.45237885 558.85278992 343.43388367 557.85531616 C343.37992205 554.77858773 343.34593011 551.7020132 343.3125 548.625 C343.27931447 546.53253074 343.24482367 544.44008174 343.20898438 542.34765625 C343.12420354 537.23188211 343.05732472 532.11615249 343 527 C341.02 527 339.04 527 337 527 Z M1049 529 C1049 532.63 1049 536.26 1049 540 C1046.69 540 1044.38 540 1042 540 C1042 541.32 1042 542.64 1042 544 C1044.97 544.495 1044.97 544.495 1048 545 C1048.01458252 545.97348389 1048.02916504 546.94696777 1048.04418945 547.94995117 C1048.10233296 551.57515476 1048.17956377 555.1997476 1048.26245117 558.82446289 C1048.29562532 560.39076801 1048.32368058 561.95719051 1048.34643555 563.52368164 C1048.38012116 565.78061763 1048.43244049 568.03648526 1048.48828125 570.29296875 C1048.49467117 570.98899704 1048.5010611 571.68502533 1048.50764465 572.40214539 C1048.63793362 576.74841431 1049.37638149 579.5181696 1052 583 C1055.16754847 585.26060083 1057.93132726 585.21592078 1061.75 585.125 C1062.73484375 585.10695313 1063.7196875 585.08890625 1064.734375 585.0703125 C1065.48203125 585.04710937 1066.2296875 585.02390625 1067 585 C1067 583.68 1067 582.36 1067 581 C1066.30132813 580.90203125 1065.60265625 580.8040625 1064.8828125 580.703125 C1063.97273438 580.55359375 1063.06265625 580.4040625 1062.125 580.25 C1061.22007813 580.11078125 1060.31515625 579.9715625 1059.3828125 579.828125 C1057 579 1057 579 1055.87695312 577.39648438 C1054.69181474 574.15780999 1054.67067417 571.27408308 1054.5859375 567.828125 C1054.56657135 567.1457074 1054.5472052 566.46328979 1054.5272522 565.76019287 C1054.46768902 563.59025392 1054.42116554 561.42026123 1054.375 559.25 C1054.33679869 557.77471703 1054.2977457 556.29945585 1054.2578125 554.82421875 C1054.16200765 551.21634582 1054.07789084 547.60830917 1054 544 C1058.29 544 1062.58 544 1067 544 C1067 542.68 1067 541.36 1067 540 C1062.71 540 1058.42 540 1054 540 C1054 536.37 1054 532.74 1054 529 C1052.35 529 1050.7 529 1049 529 Z M399.0625 543.6875 C398.711875 544.120625 398.36125 544.55375 398 545 C397.34 543.35 396.68 541.7 396 540 C394.35 540 392.7 540 391 540 C391 554.85 391 569.7 391 585 C392.65 585 394.3 585 396 585 C397.85872279 583.14127721 397.17494682 580.0372752 397.2109375 577.55078125 C397.23902895 576.21418094 397.26769354 574.87759258 397.296875 573.54101562 C397.33797616 571.4323794 397.37485592 569.32396069 397.40136719 567.21508789 C397.42916684 565.18068037 397.47505898 563.14729013 397.5234375 561.11328125 C397.54325684 559.89423096 397.56307617 558.67518066 397.58349609 557.41918945 C398.20588765 552.30981448 399.8181771 549.06926834 403.625 545.625 C407.94195786 543.54646473 411.29284176 543.29523139 416 544 C419.48295881 545.36289692 420.67973535 546.51960302 422.75 549.625 C425.58291689 557.27387561 425.25153274 565.98244918 425.5625 574.0625 C425.60568359 575.11888672 425.64886719 576.17527344 425.69335938 577.26367188 C425.79837337 579.84234879 425.90052877 582.42110435 426 585 C427.65 585 429.3 585 431 585 C431.07447267 580.41019186 431.12875322 575.82073986 431.16479492 571.23046875 C431.17982869 569.67083606 431.20026135 568.11124528 431.22631836 566.55175781 C431.26294211 564.30262884 431.27978021 562.05406153 431.29296875 559.8046875 C431.30845261 559.1138205 431.32393646 558.42295349 431.33988953 557.71115112 C431.3417714 552.22786559 430.00712512 548.22134265 426.31640625 544.13671875 C425.73761719 543.65847656 425.15882813 543.18023438 424.5625 542.6875 C423.98628906 542.19636719 423.41007812 541.70523438 422.81640625 541.19921875 C415.71398584 536.51009388 405.21903852 538.32535355 399.0625 543.6875 Z M505 544 C505 542.68 505 541.36 505 540 C503.33388095 539.957279 501.66617115 539.95936168 500 540 C498.46915575 541.53084425 498.87284221 542.91203144 498.87060547 545.04492188 C498.86745331 545.90251099 498.86430115 546.7601001 498.86105347 547.64367676 C498.8630777 548.57595093 498.86510193 549.5082251 498.8671875 550.46875 C498.86623077 551.41939331 498.86527405 552.37003662 498.86428833 553.3494873 C498.86360643 555.36368882 498.86546138 557.37789252 498.86962891 559.39208984 C498.87497702 562.48670355 498.86968423 565.5811721 498.86328125 568.67578125 C498.86394203 570.62760449 498.86522319 572.57942764 498.8671875 574.53125 C498.86516327 575.46352417 498.86313904 576.39579834 498.86105347 577.35632324 C498.86420563 578.21391235 498.86735779 579.07150146 498.87060547 579.95507812 C498.87140106 580.71373169 498.87219666 581.47238525 498.87301636 582.25402832 C498.81078913 584.02877312 498.81078913 584.02877312 500 585 C501.66617115 585.04063832 503.33388095 585.042721 505 585 C505.01981934 584.18845459 505.03963867 583.37690918 505.06005859 582.54077148 C505.15571837 578.83937251 505.26523214 575.13850635 505.375 571.4375 C505.42140625 569.52227539 505.42140625 569.52227539 505.46875 567.56835938 C505.944502 552.30464927 505.944502 552.30464927 510.0625 547.6875 C513.90302869 545.48123884 517.6617548 544.71831511 522 544 C522 542.35 522 540.7 522 539 C515.92111612 538.41172092 509.99065252 540.67289832 505 544 Z M1155 545 C1154.67 543.35 1154.34 541.7 1154 540 C1152.35 540 1150.7 540 1149 540 C1149 554.85 1149 569.7 1149 585 C1150.65 585 1152.3 585 1154 585 C1154.01981934 584.28980713 1154.03963867 583.57961426 1154.06005859 582.84790039 C1154.15615196 579.5857696 1154.2654855 576.32420672 1154.375 573.0625 C1154.42140625 571.38704102 1154.42140625 571.38704102 1154.46875 569.67773438 C1155.10048251 551.72600227 1155.10048251 551.72600227 1161 546 C1165.26335786 543.45096077 1169.15342998 543.46245556 1174 544 C1177.83636212 545.417786 1178.74216149 546.49191224 1180.60083008 550.15454102 C1182.14641373 553.94014344 1182.42665626 557.36483176 1182.51171875 561.46484375 C1182.52966995 562.14301651 1182.54762115 562.82118927 1182.56611633 563.51991272 C1182.61974943 565.65904757 1182.65396044 567.79796558 1182.6875 569.9375 C1182.72071492 571.39911843 1182.75520837 572.8607084 1182.79101562 574.32226562 C1182.87544603 577.8813021 1182.9424797 581.44041512 1183 585 C1184.66611905 585.042721 1186.33382885 585.04063832 1188 585 C1190.64485493 582.35514507 1189.27419905 574.91183838 1189.29516602 571.11938477 C1189.31224025 568.97019592 1189.35608345 566.82260236 1189.40039062 564.67382812 C1189.5020403 555.67717485 1188.80363458 549.81793713 1183.125 542.625 C1174.31134255 535.8851443 1162.98192632 538.29518189 1155 545 Z M443 524 C443 544.13 443 564.26 443 585 C444.65 585 446.3 585 448 585 C448.66 583.02 449.32 581.04 450 579 C451.46484375 580.26953125 452.9296875 581.5390625 454.39453125 582.80859375 C458.0504061 585.5215909 461.93248201 585.19801166 466.3125 585.25 C468.25576172 585.28867187 468.25576172 585.28867187 470.23828125 585.328125 C475.41715578 584.87638517 478.63152075 583.10781654 482.625 579.875 C487.48064058 573.99711929 489.69217299 568.13325254 489.3125 560.48046875 C488.29474755 552.40205867 485.49033002 547.03872933 479 542 C475.32402391 539.5245116 471.48131302 539.61612237 467.1875 539.625 C466.11218018 539.6252417 466.11218018 539.6252417 465.01513672 539.62548828 C458.25664639 539.77224407 454.75647093 541.24352907 450 546 C449.67 538.74 449.34 531.48 449 524 C447.02 524 445.04 524 443 524 Z M532.75 546.4375 C532.27046875 547.01371094 531.7909375 547.58992187 531.296875 548.18359375 C527.01740433 554.17743069 526.26546088 561.31911347 527.3984375 568.5390625 C529.3142044 575.09774684 532.882019 580.07604351 538.703125 583.66796875 C542.52341631 585.21147507 545.87847518 585.497662 549.9375 585.4375 C550.64753174 585.42992676 551.35756348 585.42235352 552.08911133 585.41455078 C559.30840817 585.18610785 562.96735787 583.34882075 567.875 578.125 C570.06607912 574.90282482 570.72531177 572.84563527 571 569 C568.61854709 568.63975283 568.61854709 568.63975283 566 569 C564.37581989 570.86662923 564.37581989 570.86662923 563.1875 573.3125 C560.65064924 577.43244944 558.75398393 579.38246255 554.078125 580.703125 C548.22387162 581.53944691 542.9644047 580.23263562 538 577 C534.65761967 572.82202459 534.39140152 569.56560607 533 564 C545.54 564 558.08 564 571 564 C571 553.7764879 570.9756775 550.13860901 564.44921875 543.3984375 C559.99627729 539.86373009 555.40875153 539.55041568 549.875 539.5 C548.85345825 539.49033203 548.85345825 539.49033203 547.8112793 539.48046875 C541.48984214 539.64044672 536.75507879 541.4971693 532.75 546.4375 Z M586 545 C580.33501737 552.2242834 579.14752894 558.92298415 580 568 C581.93416659 575.82508539 585.02061862 579.81184405 591.7265625 584.10546875 C594.97864562 585.38506847 597.89170334 585.30207097 601.375 585.3125 C602.66148437 585.32925781 603.94796875 585.34601562 605.2734375 585.36328125 C611.26522787 584.7791759 615.03004436 582.42802744 619 578 C619.495 581.465 619.495 581.465 620 585 C621.66611905 585.042721 623.33382885 585.04063832 625 585 C626.53084425 583.46915575 626.12715779 582.08796856 626.12939453 579.95507812 C626.13412277 578.66869446 626.13412277 578.66869446 626.13894653 577.35632324 C626.1369223 576.42404907 626.13489807 575.4917749 626.1328125 574.53125 C626.13376923 573.58060669 626.13472595 572.62996338 626.13571167 571.6505127 C626.13639357 569.63631118 626.13453862 567.62210748 626.13037109 565.60791016 C626.12502298 562.51329645 626.13031577 559.4188279 626.13671875 556.32421875 C626.13605797 554.37239551 626.13477681 552.42057236 626.1328125 550.46875 C626.13483673 549.53647583 626.13686096 548.60420166 626.13894653 547.64367676 C626.13579437 546.78608765 626.13264221 545.92849854 626.12939453 545.04492188 C626.12859894 544.28626831 626.12780334 543.52761475 626.12698364 542.74597168 C626.18921087 540.97122688 626.18921087 540.97122688 625 540 C623.33382885 539.95936168 621.66611905 539.957279 620 540 C619.67 542.31 619.34 544.62 619 547 C618.27683594 546.36771484 618.27683594 546.36771484 617.5390625 545.72265625 C616.90742187 545.17480469 616.27578125 544.62695312 615.625 544.0625 C614.99851562 543.51722656 614.37203125 542.97195313 613.7265625 542.41015625 C608.92393293 538.48764658 601.82122022 539.45017272 595.89501953 539.78222656 C591.70155963 540.26413409 588.86362658 541.98451444 586 545 Z M677.1875 546.9375 C672.05631511 554.12115884 672.2851494 561.49418275 673 570 C674.600802 576.24983773 678.7215072 580.46059299 684 584 C687.57312995 585.19104332 690.54553322 585.20528823 694.3125 585.25 C696.25576172 585.28867187 696.25576172 585.28867187 698.23828125 585.328125 C704.26233096 584.80266272 708.01555541 582.4441882 712 578 C712.495 581.465 712.495 581.465 713 585 C714.66611905 585.042721 716.33382885 585.04063832 718 585 C719.53084425 583.46915575 719.12715779 582.08796856 719.12939453 579.95507812 C719.13412277 578.66869446 719.13412277 578.66869446 719.13894653 577.35632324 C719.1369223 576.42404907 719.13489807 575.4917749 719.1328125 574.53125 C719.13376923 573.58060669 719.13472595 572.62996338 719.13571167 571.6505127 C719.13639357 569.63631118 719.13453862 567.62210748 719.13037109 565.60791016 C719.12502298 562.51329645 719.13031577 559.4188279 719.13671875 556.32421875 C719.13605797 554.37239551 719.13477681 552.42057236 719.1328125 550.46875 C719.13483673 549.53647583 719.13686096 548.60420166 719.13894653 547.64367676 C719.13579437 546.78608765 719.13264221 545.92849854 719.12939453 545.04492188 C719.12859894 544.28626831 719.12780334 543.52761475 719.12698364 542.74597168 C719.18921087 540.97122688 719.18921087 540.97122688 718 540 C716.33382885 539.95936168 714.66611905 539.957279 713 540 C712.67 542.31 712.34 544.62 712 547 C711.27683594 546.36771484 711.27683594 546.36771484 710.5390625 545.72265625 C709.90742187 545.17480469 709.27578125 544.62695312 708.625 544.0625 C707.99851562 543.51722656 707.37203125 542.97195313 706.7265625 542.41015625 C698.37617736 535.59004531 683.69173536 539.74567404 677.1875 546.9375 Z M731 524 C730.97687208 531.80575195 730.95908262 539.61149595 730.94818783 547.41727352 C730.94295998 551.0414596 730.93586413 554.6656223 730.92456055 558.28979492 C730.91372816 561.78459975 730.90772242 565.27938204 730.90512276 568.77420235 C730.90236449 570.76239389 730.89455312 572.75057631 730.88670349 574.73875427 C730.88662796 575.93992386 730.88655243 577.14109344 730.88647461 578.37866211 C730.884254 579.44233505 730.88203339 580.506008 730.87974548 581.60191345 C730.72883237 583.95243414 730.72883237 583.95243414 732 585 C733.66617115 585.04063832 735.33388095 585.042721 737 585 C737.495 582.03 737.495 582.03 738 579 C738.4640625 579.433125 738.928125 579.86625 739.40625 580.3125 C745.56487166 585.27616521 751.50942795 586.06116062 759.171875 585.58203125 C765.4473975 584.62789569 769.54180472 582.21084496 773.390625 577.18359375 C777.54581242 570.40946778 778.22975079 562.37111744 776.46875 554.6796875 C774.39666427 548.75622503 771.15223019 543.75288864 765.44921875 540.734375 C758.95961193 538.78852798 750.56642749 538.64255358 744.21875 541.05859375 C741.43006465 542.76110636 739.47398658 544.05202684 738 547 C737.67 539.41 737.34 531.82 737 524 C735.02 524 733.04 524 731 524 Z M810.171875 544.68359375 C809.70265625 545.26238281 809.2334375 545.84117187 808.75 546.4375 C808.27046875 547.01371094 807.7909375 547.58992187 807.296875 548.18359375 C803.19965291 553.92217288 802.6248532 560.27315034 803.17578125 567.21484375 C804.52675446 574.10617172 808.68780478 578.98939546 813.875 583.5 C817.716978 585.44257315 821.84097834 585.38390553 826.0625 585.4375 C826.74747559 585.4478125 827.43245117 585.458125 828.13818359 585.46875 C834.18447462 585.36362251 838.10640237 583.58533755 842.6875 579.75 C845.36102791 576.57066951 846.5578106 573.87113996 848 570 C846.95533891 568.78384032 846.95533891 568.78384032 844.75 568.4375 C841.94105434 568.68494667 841.94105434 568.68494667 840.83984375 570.64453125 C840.26943359 571.68673828 840.26943359 571.68673828 839.6875 572.75 C837.43371861 576.70289384 835.37257125 578.66140843 831.1796875 580.44140625 C825.81372639 581.81655399 821.45622434 580.75507929 816.625 578.25 C811.83404233 574.14346486 810.65153529 569.96932034 809 564 C810.145896 564.00523682 811.29179199 564.01047363 812.47241211 564.01586914 C816.70840682 564.03391717 820.94439812 564.04543128 825.18041992 564.05493164 C827.01668875 564.05997231 828.85295354 564.06680477 830.68920898 564.07543945 C833.32276401 564.08751672 835.95626616 564.09323081 838.58984375 564.09765625 C839.82890724 564.10539818 839.82890724 564.10539818 841.09300232 564.11329651 C843.06236368 564.11349205 845.03161614 564.06204152 847 564 C848.34294244 562.87280116 848.34294244 562.87280116 848.25 559.9375 C847.81105108 553.02405445 846.21758097 548.75256819 841 544.0625 C836.24866915 540.11205636 832.21249309 539.79369895 826.1875 539.75 C825.13852539 539.7190625 825.13852539 539.7190625 824.06835938 539.6875 C818.38312272 539.64495379 814.38046375 540.8077353 810.171875 544.68359375 Z M882 544 C879.414911 547.40761731 879.70297018 550.84158258 880 555 C881.53060321 558.96330107 883.59591017 560.19534852 887.4375 561.99609375 C891.58351442 563.62037074 895.85187131 564.80010084 900.14453125 565.97265625 C902.94955886 566.98185223 904.28823695 567.59411997 906 570 C906.65439093 576.10764873 906.65439093 576.10764873 904.625 578.875 C901.02322878 581.36853392 898.36431398 581.36369283 894 581 C889.08915291 578.54457646 887.06570994 576.04951318 885 571 C883.35 571 881.7 571 880 571 C880.06929505 574.46475274 880.19826601 577.0684222 882.51953125 579.765625 C888.63897837 585.07344019 893.58547713 585.34303577 901.59765625 585.28515625 C906.09386604 584.90832122 907.8412182 584.1587818 911 581 C913.59036348 577.58542996 913.43108741 574.16717829 913 570 C911.0388259 566.0776518 909.40541771 563.84008143 905.28515625 562.390625 C903.88385262 561.98799691 902.47582276 561.60816201 901.0625 561.25 C891.14928678 558.50592081 891.14928678 558.50592081 888 557 C886.47508002 553.95016004 886.76437452 551.3576631 887 548 C888.54262813 545.89641619 889.68108317 545.15945841 892 544 C895.97832419 543.6246864 898.27106045 543.56926299 901.75 545.625 C904.21929734 548.23148053 905.5821641 550.71659055 907 554 C908.65 554 910.3 554 912 554 C911.77560344 548.39008601 910.51447236 545.87038358 906.5703125 542.1640625 C900.04184614 537.32455261 887.62020879 538.37979121 882 544 Z M925.625 547.5 C921.63565665 553.63745131 920.2955079 560.35864029 921.3984375 567.625 C923.23565648 574.71450384 926.43091097 579.79449925 932.69921875 583.66796875 C936.55189515 585.22271745 939.91361043 585.44413065 944 585.375 C944.68578125 585.38660156 945.3715625 585.39820313 946.078125 585.41015625 C952.21621527 585.37501451 956.13786204 583.64561029 960.6875 579.625 C966.27818157 573.27882092 967.32792913 568.07751854 967.20703125 559.8125 C966.68197354 552.67964054 963.95402914 548.39322495 958.9140625 543.4453125 C948.71051419 535.74059235 933.82276414 538.87077459 925.625 547.5 Z M994 540 C993.90038271 544.41074704 993.82818331 548.82088095 993.78027344 553.23242188 C993.76028081 554.7299339 993.73307701 556.22736908 993.69824219 557.72460938 C993.24138174 570.57814233 993.24138174 570.57814233 999.4128418 581.53686523 C1003.62359932 585.40509836 1006.88817879 585.8826766 1012.375 586.1875 C1017.50652292 585.9220764 1021.49711664 585.31020601 1025.4375 581.875 C1026.2109375 580.946875 1026.2109375 580.946875 1027 580 C1027.66 581.65 1028.32 583.3 1029 585 C1030.65 585 1032.3 585 1034 585 C1034 570.15 1034 555.3 1034 540 C1032.02 540 1030.04 540 1028 540 C1027.9906543 540.9379541 1027.98130859 541.8759082 1027.97167969 542.84228516 C1027.92750562 546.34286324 1027.86582333 549.84224303 1027.79248047 553.34228516 C1027.76436218 554.85323938 1027.74310229 556.36433821 1027.72900391 557.87548828 C1027.70744551 560.05576103 1027.66073684 562.23431219 1027.609375 564.4140625 C1027.58842773 565.7232666 1027.56748047 567.0324707 1027.54589844 568.38134766 C1026.91500255 572.56343119 1025.64187089 574.73356621 1023 578 C1018.61626546 580.9224897 1015.22222401 581.559524 1010 581 C1005.82785984 579.6360311 1004.40140835 578.77215978 1002.36010742 574.84545898 C1000.85069948 571.06483625 1000.57292716 567.61508905 1000.48828125 563.53515625 C1000.47033005 562.85698349 1000.45237885 562.17881073 1000.43388367 561.48008728 C1000.38025057 559.34095243 1000.34603956 557.20203442 1000.3125 555.0625 C1000.27928508 553.60088157 1000.24479163 552.1392916 1000.20898438 550.67773438 C1000.12455397 547.1186979 1000.0575203 543.55958488 1000 540 C998.02 540 996.04 540 994 540 Z M1077 540 C1077 554.85 1077 569.7 1077 585 C1078.65 585 1080.3 585 1082 585 C1082 570.15 1082 555.3 1082 540 C1080.35 540 1078.7 540 1077 540 Z M1096.6875 547.3125 C1092.02819158 553.16459137 1091.26857253 559.74667756 1092 567 C1093.12361889 574.16917703 1096.36393985 577.86570947 1101.84375 582.46875 C1107.68667825 586.61807586 1116.13894438 585.48123637 1123 585 C1128.66269344 583.46904379 1132.80438623 578.75879327 1136 574 C1139.0671372 567.76104515 1139.11647277 560.30336657 1137.3828125 553.62109375 C1134.99136313 548.21387858 1130.7717699 544.38041194 1126 541 C1115.32000068 537.44000023 1104.38137925 539.19829005 1096.6875 547.3125 Z M1202 543 C1199.14437631 547.09306063 1198.70705915 550.17312633 1199.08984375 554.97265625 C1200.82249752 558.83208674 1204.12997751 561.21293134 1207.94262695 562.81762695 C1210.01162508 563.48663689 1212.08398301 564.07440201 1214.1875 564.625 C1222.77972928 566.93080224 1222.77972928 566.93080224 1225 570 C1226.15598404 572.66765548 1226.05750257 573.79874102 1225.25 576.625 C1224 579 1224 579 1221 581 C1215.79614906 581.49092933 1212.33054828 580.98326659 1208 578 C1206.37577223 575.73714397 1205.23502419 573.51754932 1204 571 C1202.35 571 1200.7 571 1199 571 C1199.38875039 576.44250545 1201.16552996 579.16552996 1205 583 C1210.9471778 586.05143154 1217.49165893 585.6256553 1224 585 C1227.36393242 583.82836106 1229.21490556 582.03489721 1231.375 579.1875 C1232.59336757 574.9232135 1232.57421095 571.32975167 1230.8125 567.25 C1226.57828853 561.99373748 1220.62616727 560.96841262 1214.3515625 559.5390625 C1207.97400309 557.982938 1207.97400309 557.982938 1206 555 C1205.73358106 551.27013478 1205.8154869 548.55353929 1207 545 C1211.30382543 543.17915078 1216.37229557 543.60211669 1220.8125 544.6875 C1223.65917906 546.39550744 1224.08228985 547.86449033 1225 551 C1225.33 551.99 1225.66 552.98 1226 554 C1227.65 554 1229.3 554 1231 554 C1230.74730935 549.70425887 1230.4431794 547.52481771 1227.625 544.1875 C1222.99476083 540.32896736 1220.62874794 539.70519277 1214.625 539.6875 C1213.31789063 539.67074219 1212.01078125 539.65398438 1210.6640625 539.63671875 C1206.84541147 540.01532701 1205.00925485 540.68265411 1202 543 Z " fill="#000000" transform="translate(0,0)"/>
<path d="M0 0 C9.23225335 7.62664407 13.43553942 14.60095067 14.875 26.375 C15.77502418 38.75676117 14.6344321 48.58915683 6.8125 58.75 C0.40463319 65.29478704 -6.82652587 68.59148881 -15.93676758 68.98413086 C-26.95278606 69.05771438 -34.27475643 66.80814126 -42.40625 59.14453125 C-49.76409075 51.56929975 -51.25723802 42.13811826 -51.5625 31.875 C-51.31514048 21.3675979 -48.52792732 12.03497341 -41.125 4.375 C-29.48238498 -6.64031895 -13.8545105 -7.20434546 0 0 Z " fill="#000000" transform="translate(391.125,103.625)"/>
<path d="M0 0 C5.84156646 3.09416305 9.24288362 7.41458846 11.30078125 13.7109375 C12.96438444 22.61517551 12.5951501 32.10587517 7.7109375 39.90625 C3.41885707 44.91013584 -2.01978181 48.25720395 -8.6015625 49.2578125 C-16.22121194 49.71022919 -22.43105481 47.26207901 -28.1796875 42.26171875 C-34.38077551 35.59404403 -34.75136572 28.22281397 -34.6015625 19.421875 C-34.03768433 13.0782456 -32.30229788 7.34166838 -27.4765625 2.96875 C-18.76092943 -2.67077728 -9.71506869 -4.28256089 0 0 Z " fill="#000000" transform="translate(603.2890625,125.09375)"/>
<path d="M0 0 C4.79842207 3.56805744 6.34615867 8.72007462 7.4765625 14.390625 C8.48496399 21.84810581 7.78875641 28.61413966 4.25 35.3125 C-0.52761864 41.01910004 -5.79591215 45.2013963 -13.31640625 46.35546875 C-20.16027858 46.75174931 -25.35986358 44.82687764 -31 41 C-37.35373461 35.31586272 -38.70465904 28.43011438 -39.25 20.25 C-39.1380428 12.9447924 -36.76625263 5.56062807 -32 0 C-21.77838213 -7.42739055 -10.33971572 -6.65522747 0 0 Z " fill="#000000" transform="translate(884,128)"/>
<path d="M0 0 C6.26158117 3.67867894 9.76995243 9.63039463 11.625 16.5 C12.46285446 25.78168642 12.42528233 34.87803501 6.3125 42.3125 C0.0760268 47.38869911 -4.56949486 49.93001616 -12.60546875 49.84765625 C-18.47496459 49.11086481 -23.38767375 46.27813401 -27.75 42.375 C-32.98587896 33.11152185 -34.83590422 24.78345731 -32.3125 14.4375 C-30.09190079 7.74442631 -26.11673929 3.22030701 -20.1875 -0.5 C-13.51869292 -2.2491953 -6.4631897 -2.79120476 0 0 Z " fill="#000000" transform="translate(1028.375,124.5)"/>
<path d="M0 0 C5.72614902 2.91709478 8.96980663 6.9094199 11 13 C11.55216036 19.66839823 11.48097079 25.19838201 8 31 C3.68852056 35.61944226 -0.62176735 37.74781288 -7 38 C-11.87199904 37.30286843 -15.67622885 35.8210911 -18.9375 32.0625 C-23.42596529 25.39780912 -23.93030251 20.0274557 -23 12 C-20.90443346 6.27091896 -17.3480362 2.90654141 -12 0 C-7.8026454 -1.3991182 -4.28778767 -0.93978908 0 0 Z " fill="#000000" transform="translate(472,544)"/>
<path d="M0 0 C3.85400341 2.13613367 5.87381309 4.34253124 7.8125 8.375 C8.3075 12.335 8.3075 12.335 8.8125 16.375 C-2.0775 16.375 -12.9675 16.375 -24.1875 16.375 C-22.97108209 6.64365672 -22.97108209 6.64365672 -19.1875 2.375 C-12.98993612 -1.96329472 -7.07250847 -3.11138081 0 0 Z " fill="#000000" transform="translate(557.1875,544.625)"/>
<path d="M0 0 C4.34933729 3.09472076 6.57023093 6.2731928 8.25 11.3125 C8.95845563 18.50158255 8.53807341 24.34587154 4.25 30.3125 C0.39470134 34.49825284 -4.15347673 36.02177152 -9.75 36.3125 C-15.73707165 35.37944987 -19.9618381 33.13379696 -23.75 28.3125 C-26.98500101 21.71719865 -26.8456317 13.72113196 -24.625 6.8125 C-18.09477551 -1.89446599 -9.89090156 -5.07280144 0 0 Z " fill="#000000" transform="translate(611.75,545.6875)"/>
<path d="M0 0 C4.53853441 4.4190993 5.74886426 9.23750691 6.3125 15.4375 C5.81467876 21.11266211 4.31773221 25.30577288 0.8125 29.8125 C-3.42258168 33.10645242 -7.0896009 35.10204143 -12.5625 34.91015625 C-18.15164156 34.03685288 -21.50316406 32.66244792 -25 28 C-28.28309154 22.72360288 -29.48435649 17.6298245 -28.66796875 11.51171875 C-27.08332829 4.77444094 -23.86207823 0.67926983 -18 -3 C-11.13706767 -5.18892776 -5.89545168 -3.8547184 0 0 Z " fill="#000000" transform="translate(707,547)"/>
<path d="M0 0 C3.69465673 3.02290096 6.23041637 5.6912491 7.75 10.25 C8.70315682 23.97912424 8.70315682 23.97912424 4.75 29.25 C0.39612606 33.81120127 -3.86353733 36.01186071 -10.25 36.25 C-15.31604996 35.28763209 -19.65520665 32.94750173 -23.25 29.25 C-26.66790633 23.47491689 -27.10674973 17.87553125 -26.25 11.25 C-24.60148688 5.93221575 -22.0410346 2.21587856 -17.25 -0.75 C-11.09657203 -3.62159972 -5.87815078 -3.16515811 0 0 Z " fill="#000000" transform="translate(763.25,545.75)"/>
<path d="M0 0 C5.25 3.70588235 5.25 3.70588235 6.6875 6.75 C7.1825 11.205 7.1825 11.205 7.6875 15.75 C-3.2025 15.75 -14.0925 15.75 -25.3125 15.75 C-22.83401463 4.59681583 -22.83401463 4.59681583 -17.3125 -0.25 C-11.62973666 -3.68956728 -5.54080933 -3.31022616 0 0 Z " fill="#000000" transform="translate(834.3125,545.25)"/>
<path d="M0 0 C3.69465673 3.02290096 6.23041637 5.6912491 7.75 10.25 C8.3850156 17.95346797 8.63954348 24.03895828 3.75 30.25 C-0.16469253 34.38838924 -4.63471711 35.95939271 -10.25 36.25 C-15.28605145 35.30405116 -19.72922686 32.97196017 -23.25 29.25 C-26.65789132 23.20374121 -27.23260132 16.80271943 -25.78125 10.078125 C-24.12819729 4.8434581 -21.79931866 2.28287911 -17.25 -0.75 C-11.14730504 -3.6686802 -5.84469499 -3.14714345 0 0 Z " fill="#000000" transform="translate(953.25,545.75)"/>
<path d="M0 0 C3.375 1.875 3.375 1.875 6 4 C6.86625 4.680625 6.86625 4.680625 7.75 5.375 C11.86353411 10.72259434 11.58853158 17.58220328 11 24 C9.9669594 28.64434219 7.65119459 32.1208097 3.79296875 34.98828125 C-0.42691349 37.36943484 -4.58544782 38.3454969 -9.40234375 37.65625 C-15.0190127 36.08619944 -17.84710917 33.87264946 -21 29 C-23.74347914 22.99047426 -23.86758937 17.01279804 -21.8125 10.8125 C-19.75198442 5.9019255 -16.61245793 3.09940313 -12.25 0.125 C-7.87647463 -1.38891263 -4.4477955 -1.18767299 0 0 Z " fill="#000000" transform="translate(1121,544)"/>
</svg>
